<svg width="59" height="43" viewBox="0 0 59 43" fill="none" xmlns="http://www.w3.org/2000/svg">
<path d="M57 12.7561C57 11.0986 57 10.2699 56.6706 9.88611C56.3847 9.55313 55.9559 9.37642 55.5171 9.41078C55.0114 9.45038 54.4224 10.0364 53.2444 11.2084L43.25 21.1518L53.2444 31.0952C54.4224 32.2672 55.0114 32.8532 55.5171 32.8928C55.9559 32.9272 56.3847 32.7504 56.6706 32.4175C57 32.0337 57 31.205 57 29.5475V12.7561Z" stroke="black" stroke-width="4" stroke-linecap="round" stroke-linejoin="round"/>
<path d="M2 15.1327C2 10.5358 2 8.23736 2.8992 6.4816C3.69015 4.93718 4.95224 3.68153 6.50458 2.89461C8.26935 2 10.5796 2 15.2 2H30.05C34.6704 2 36.9807 2 38.7454 2.89461C40.2978 3.68153 41.5598 4.93718 42.3508 6.4816C43.25 8.23736 43.25 10.5358 43.25 15.1327V27.1709C43.25 31.7678 43.25 34.0662 42.3508 35.822C41.5598 37.3664 40.2978 38.622 38.7454 39.409C36.9807 40.3036 34.6704 40.3036 30.05 40.3036H15.2C10.5796 40.3036 8.26935 40.3036 6.50458 39.409C4.95224 38.622 3.69015 37.3664 2.8992 35.822C2 34.0662 2 31.7678 2 27.1709V15.1327Z" stroke="black" stroke-width="4" stroke-linecap="round" stroke-linejoin="round"/>
</svg>
