<svg width="59" height="53" viewBox="0 0 59 53" fill="none" xmlns="http://www.w3.org/2000/svg">
<path d="M2 14.9997C2 10.4494 2 8.17422 2.89918 6.43623C3.69011 4.90744 4.95217 3.66451 6.50448 2.88555C8.26921 2 10.5794 2 15.1997 2H43.799C48.4194 2 50.7295 2 52.4943 2.88555C54.0466 3.66451 55.3086 4.90744 56.0996 6.43623C56.9987 8.17422 56.9987 10.4494 56.9987 14.9997V37.7492C56.9987 42.2995 56.9987 44.5747 56.0996 46.3127C55.3086 47.8414 54.0466 49.0844 52.4943 49.8633C50.7295 50.7489 48.4194 50.7489 43.799 50.7489H15.1997C10.5794 50.7489 8.26921 50.7489 6.50448 49.8633C4.95217 49.0844 3.69011 47.8414 2.89918 46.3127C2 44.5747 2 42.2995 2 37.7492V14.9997Z" stroke="black" stroke-width="4" stroke-linecap="round" stroke-linejoin="round"/>
<path d="M29.4994 37.2075C35.5744 37.2075 40.4991 32.3574 40.4991 26.3744C40.4991 20.3915 35.5744 15.5414 29.4994 15.5414C23.4244 15.5414 18.4996 20.3915 18.4996 26.3744C18.4996 32.3574 23.4244 37.2075 29.4994 37.2075Z" stroke="black" stroke-width="4" stroke-linecap="round" stroke-linejoin="round"/>
</svg>
