<svg width="20" height="23" viewBox="0 0 20 23" fill="none" xmlns="http://www.w3.org/2000/svg">
<path d="M11.1419 8.70711C11.5324 8.31658 11.5324 7.68342 11.1419 7.29289L4.77793 0.928933C4.38741 0.538408 3.75424 0.538408 3.36372 0.928932C2.97319 1.31946 2.97319 1.95262 3.36372 2.34315L9.02057 8L3.36371 13.6569C2.97319 14.0474 2.97319 14.6805 3.36371 15.0711C3.75424 15.4616 4.3874 15.4616 4.77793 15.0711L11.1419 8.70711ZM-8.74231e-08 9L10.4348 9L10.4348 7L8.74231e-08 7L-8.74231e-08 9Z" fill="black"/>
<path d="M7.98855 14.2499C7.59802 14.6404 7.59802 15.2736 7.98855 15.6641L14.3525 22.0281C14.743 22.4186 15.3762 22.4186 15.7667 22.0281C16.1572 21.6376 16.1572 21.0044 15.7667 20.6139L10.1099 14.957L15.7667 9.30018C16.1572 8.90965 16.1572 8.27649 15.7667 7.88596C15.3762 7.49544 14.743 7.49544 14.3525 7.88596L7.98855 14.2499ZM20 13.957L8.69565 13.957V15.957L20 15.957V13.957Z" fill="black"/>
</svg>
