<svg width="318" height="128" viewBox="0 0 318 128" fill="none" xmlns="http://www.w3.org/2000/svg">
<path fill-rule="evenodd" clip-rule="evenodd" d="M157.5 50.0045C142.946 50.0045 131.228 61.6877 131.228 76C131.228 90.3124 142.945 101.995 157.5 101.995C172.055 101.995 183.772 90.3124 183.772 76C183.772 61.6877 172.054 50.0045 157.5 50.0045ZM110 76C110 50.1407 131.168 29 157.5 29C183.832 29 205 50.1407 205 76C205 101.859 183.832 123 157.5 123C131.168 123 110 101.859 110 76Z" fill="#AB2255"/>
<path fill-rule="evenodd" clip-rule="evenodd" d="M266.5 50.0045C251.946 50.0045 240.228 61.6877 240.228 76C240.228 90.3124 251.945 101.995 266.5 101.995C281.055 101.995 292.772 90.3124 292.772 76C292.772 61.6877 281.054 50.0045 266.5 50.0045ZM219 76C219 50.1407 240.168 29 266.5 29C292.832 29 314 50.1407 314 76C314 101.859 292.832 123 266.5 123C240.168 123 219 101.859 219 76Z" fill="#EF0711"/>
<path d="M57 3L57 124H84V3H57Z" fill="#643F9C"/>
<path d="M4 3L4 124H31L31 3H4Z" fill="#1061F0"/>
</svg>
